G04 Layer_Color=65535*
%FSLAX25Y25*%
%MOIN*%
G70*
G01*
G75*
%ADD23C,0.01000*%
%ADD32C,0.00100*%
%ADD33C,0.00394*%
%ADD34C,0.00600*%
%ADD35C,0.00050*%
D23*
X152004Y269760D02*
X216004D01*
Y239760D02*
Y269760D01*
Y174260D02*
Y177260D01*
X208004Y174260D02*
X216004D01*
X152004D02*
X160004D01*
X152004D02*
Y176760D01*
Y239760D02*
Y269760D01*
X216535Y289432D02*
Y285433D01*
Y287432D01*
X217535Y288432D01*
X218535Y289432D01*
X219534D01*
X225533Y285433D02*
X223533D01*
X222533Y286433D01*
Y288432D01*
X223533Y289432D01*
X225533D01*
X226532Y288432D01*
Y287432D01*
X222533D01*
X228532Y289432D02*
X230531Y285433D01*
X232530Y289432D01*
X240528Y290431D02*
X241527Y291431D01*
X243527D01*
X244526Y290431D01*
Y286433D01*
X243527Y285433D01*
X241527D01*
X240528Y286433D01*
Y290431D01*
X246526Y285433D02*
Y286433D01*
X247525D01*
Y285433D01*
X246526D01*
X251524D02*
X253523D01*
X252524D01*
Y291431D01*
X251524Y290431D01*
X266519Y285433D02*
X262521D01*
X266519Y289432D01*
Y290431D01*
X265520Y291431D01*
X263520D01*
X262521Y290431D01*
X268519D02*
X269518Y291431D01*
X271518D01*
X272517Y290431D01*
Y286433D01*
X271518Y285433D01*
X269518D01*
X268519Y286433D01*
Y290431D01*
X274517Y285433D02*
X276516D01*
X275516D01*
Y291431D01*
X274517Y290431D01*
X283514Y291431D02*
X281514Y290431D01*
X279515Y288432D01*
Y286433D01*
X280515Y285433D01*
X282514D01*
X283514Y286433D01*
Y287432D01*
X282514Y288432D01*
X279515D01*
X190945Y301274D02*
Y295276D01*
X193944D01*
X194944Y296275D01*
Y297275D01*
X193944Y298275D01*
X190945D01*
X193944D01*
X194944Y299274D01*
Y300274D01*
X193944Y301274D01*
X190945D01*
X196943Y299274D02*
Y296275D01*
X197943Y295276D01*
X200942D01*
Y299274D01*
X202941D02*
X206940D01*
X202941Y295276D01*
X206940D01*
X208939Y299274D02*
X212938D01*
X208939Y295276D01*
X212938D01*
X217936D02*
X215937D01*
X214937Y296275D01*
Y298275D01*
X215937Y299274D01*
X217936D01*
X218936Y298275D01*
Y297275D01*
X214937D01*
X220935Y299274D02*
Y295276D01*
Y297275D01*
X221935Y298275D01*
X222935Y299274D01*
X223934D01*
X236930D02*
X233931D01*
X232931Y298275D01*
Y296275D01*
X233931Y295276D01*
X236930D01*
X239929D02*
X241928D01*
X242928Y296275D01*
Y298275D01*
X241928Y299274D01*
X239929D01*
X238929Y298275D01*
Y296275D01*
X239929Y295276D01*
X244927D02*
Y299274D01*
X247926D01*
X248926Y298275D01*
Y295276D01*
X251925Y300274D02*
Y299274D01*
X250925D01*
X252925D01*
X251925D01*
Y296275D01*
X252925Y295276D01*
X255924Y299274D02*
Y295276D01*
Y297275D01*
X256924Y298275D01*
X257923Y299274D01*
X258923D01*
X262922Y295276D02*
X264921D01*
X265921Y296275D01*
Y298275D01*
X264921Y299274D01*
X262922D01*
X261922Y298275D01*
Y296275D01*
X262922Y295276D01*
X267920D02*
X269919D01*
X268920D01*
Y301274D01*
X267920D01*
X261873Y266809D02*
X260873Y267809D01*
X258874D01*
X257874Y266809D01*
Y262811D01*
X258874Y261811D01*
X260873D01*
X261873Y262811D01*
Y264810D01*
X259873D01*
X263872Y261811D02*
Y267809D01*
X266871D01*
X267871Y266809D01*
Y264810D01*
X266871Y263810D01*
X263872D01*
X269870Y267809D02*
X271869D01*
X270870D01*
Y261811D01*
X269870D01*
X271869D01*
X277868Y267809D02*
X275868D01*
X274868Y266809D01*
Y262811D01*
X275868Y261811D01*
X277868D01*
X278867Y262811D01*
Y266809D01*
X277868Y267809D01*
X280867Y266809D02*
X281866Y267809D01*
X283866D01*
X284865Y266809D01*
Y262811D01*
X283866Y261811D01*
X281866D01*
X280867Y262811D01*
Y266809D01*
X147638Y273622D02*
Y279620D01*
X150637D01*
X151637Y278620D01*
Y276621D01*
X150637Y275621D01*
X147638D01*
X149637D02*
X151637Y273622D01*
X157635Y279620D02*
X153636D01*
Y273622D01*
X157635D01*
X153636Y276621D02*
X155635D01*
X163633Y278620D02*
X162633Y279620D01*
X160634D01*
X159634Y278620D01*
Y277621D01*
X160634Y276621D01*
X162633D01*
X163633Y275621D01*
Y274622D01*
X162633Y273622D01*
X160634D01*
X159634Y274622D01*
X169631Y279620D02*
X165632D01*
Y273622D01*
X169631D01*
X165632Y276621D02*
X167631D01*
X171630Y279620D02*
X175629D01*
X173629D01*
Y273622D01*
X128608Y186351D02*
X127952Y187007D01*
X126640D01*
X125984Y186351D01*
Y183727D01*
X126640Y183071D01*
X127952D01*
X128608Y183727D01*
Y185039D01*
X127296D01*
X129920Y183071D02*
Y187007D01*
X132544Y183071D01*
Y187007D01*
X133856D02*
Y183071D01*
X135824D01*
X136479Y183727D01*
Y186351D01*
X135824Y187007D01*
X133856D01*
X128608Y196193D02*
X127952Y196849D01*
X126640D01*
X125984Y196193D01*
Y193569D01*
X126640Y192913D01*
X127952D01*
X128608Y193569D01*
Y194881D01*
X127296D01*
X129920Y192913D02*
Y196849D01*
X132544Y192913D01*
Y196849D01*
X133856D02*
Y192913D01*
X135824D01*
X136479Y193569D01*
Y196193D01*
X135824Y196849D01*
X133856D01*
X124016Y236219D02*
Y232283D01*
X125984D01*
X126640Y232939D01*
Y235563D01*
X125984Y236219D01*
X124016D01*
X127952D02*
X130575D01*
X129263D01*
Y232283D01*
X131887D02*
Y236219D01*
X133855D01*
X134511Y235563D01*
Y234251D01*
X133855Y233595D01*
X131887D01*
X133199D02*
X134511Y232283D01*
X125984Y222441D02*
Y226377D01*
X127952D01*
X128608Y225721D01*
Y224409D01*
X127952Y223753D01*
X125984D01*
X127296D02*
X128608Y222441D01*
X129920Y226377D02*
X132544Y222441D01*
Y226377D02*
X129920Y222441D01*
X125984Y216534D02*
X128608D01*
X127296D01*
Y212598D01*
X129920Y216534D02*
X132544Y212598D01*
Y216534D02*
X129920Y212598D01*
X125984Y206036D02*
X126640Y206692D01*
X127952D01*
X128608Y206036D01*
Y205380D01*
X127952Y204724D01*
X127296D01*
X127952D01*
X128608Y204068D01*
Y203412D01*
X127952Y202756D01*
X126640D01*
X125984Y203412D01*
X129920Y206692D02*
Y204068D01*
X131232Y202756D01*
X132544Y204068D01*
Y206692D01*
X133856Y206036D02*
X134512Y206692D01*
X135824D01*
X136479Y206036D01*
Y205380D01*
X135824Y204724D01*
X135168D01*
X135824D01*
X136479Y204068D01*
Y203412D01*
X135824Y202756D01*
X134512D01*
X133856Y203412D01*
X128608Y196193D02*
X127952Y196849D01*
X126640D01*
X125984Y196193D01*
Y193569D01*
X126640Y192913D01*
X127952D01*
X128608Y193569D01*
Y194881D01*
X127296D01*
X129920Y192913D02*
Y196849D01*
X132544Y192913D01*
Y196849D01*
X133856D02*
Y192913D01*
X135824D01*
X136479Y193569D01*
Y196193D01*
X135824Y196849D01*
X133856D01*
D32*
X220749Y119782D02*
X220949D01*
X274549Y119882D02*
X279749D01*
X266649D02*
X269149D01*
X253549D02*
X257249D01*
X247149D02*
X247449D01*
X227049D02*
X231649D01*
X220249D02*
X220949D01*
X271249Y119982D02*
X279949D01*
X266649D02*
X269149D01*
X258949D02*
X259549D01*
X253549D02*
X257249D01*
X246749D02*
X247449D01*
X235549D02*
X242549D01*
X223249D02*
X231849D01*
X220049D02*
X220949D01*
X211049D02*
X213549D01*
X270849Y120082D02*
X280149D01*
X266649D02*
X269149D01*
X258549D02*
X259549D01*
X253449D02*
X257149D01*
X246449D02*
X247449D01*
X234949D02*
X243249D01*
X222749D02*
X232049D01*
X219849D02*
X220949D01*
X211049D02*
X213549D01*
X270549Y120182D02*
X280249D01*
X266649D02*
X269149D01*
X258349D02*
X259549D01*
X253349D02*
X257049D01*
X246249D02*
X247449D01*
X234549D02*
X243549D01*
X222449D02*
X232149D01*
X219649D02*
X220949D01*
X211049D02*
X213549D01*
X270349Y120282D02*
X280249D01*
X266649D02*
X269149D01*
X258149D02*
X259549D01*
X253349D02*
X257049D01*
X246049D02*
X247449D01*
X234349D02*
X243849D01*
X222249D02*
X232249D01*
X219549D02*
X220949D01*
X211049D02*
X213549D01*
X270149Y120382D02*
X280349D01*
X266649D02*
X269149D01*
X257949D02*
X259549D01*
X253249D02*
X256949D01*
X245849D02*
X247449D01*
X234149D02*
X243949D01*
X222149D02*
X232349D01*
X219349D02*
X220949D01*
X211049D02*
X213549D01*
X270049Y120482D02*
X280449D01*
X266649D02*
X269149D01*
X257849D02*
X259549D01*
X253149D02*
X256849D01*
X245749D02*
X247449D01*
X234049D02*
X244149D01*
X221949D02*
X232349D01*
X219249D02*
X220949D01*
X211049D02*
X213549D01*
X269849Y120582D02*
X280549D01*
X266649D02*
X269149D01*
X257649D02*
X259549D01*
X253149D02*
X256849D01*
X245649D02*
X247449D01*
X233949D02*
X244249D01*
X221849D02*
X232449D01*
X219149D02*
X220949D01*
X211049D02*
X213549D01*
X269749Y120682D02*
X280549D01*
X266649D02*
X269149D01*
X257549D02*
X259549D01*
X253049D02*
X256749D01*
X245549D02*
X247449D01*
X233849D02*
X244349D01*
X221749D02*
X232549D01*
X219049D02*
X220949D01*
X211049D02*
X213549D01*
X269749Y120782D02*
X280649D01*
X266649D02*
X269149D01*
X257449D02*
X259549D01*
X252949D02*
X256649D01*
X245449D02*
X247449D01*
X233749D02*
X244449D01*
X221649D02*
X232549D01*
X218949D02*
X220949D01*
X211049D02*
X213549D01*
X269649Y120882D02*
X280649D01*
X266649D02*
X269149D01*
X257349D02*
X259549D01*
X252949D02*
X256649D01*
X245349D02*
X247449D01*
X233649D02*
X244549D01*
X221549D02*
X232649D01*
X218849D02*
X220949D01*
X211049D02*
X213549D01*
X269549Y120982D02*
X280749D01*
X266649D02*
X269149D01*
X257349D02*
X259549D01*
X252849D02*
X256549D01*
X245249D02*
X247449D01*
X233549D02*
X244649D01*
X221449D02*
X232649D01*
X218749D02*
X220949D01*
X211049D02*
X213549D01*
X269449Y121082D02*
X280749D01*
X266649D02*
X269149D01*
X257249D02*
X259549D01*
X252749D02*
X256449D01*
X245249D02*
X247449D01*
X233449D02*
X244649D01*
X221449D02*
X232749D01*
X218749D02*
X220949D01*
X211049D02*
X213549D01*
X269349Y121182D02*
X280849D01*
X266649D02*
X269149D01*
X257249D02*
X259549D01*
X252749D02*
X256449D01*
X245149D02*
X247449D01*
X233349D02*
X244749D01*
X221349D02*
X232749D01*
X218649D02*
X220949D01*
X211049D02*
X213549D01*
X269349Y121282D02*
X280849D01*
X266649D02*
X269149D01*
X257149D02*
X259549D01*
X252649D02*
X256349D01*
X245149D02*
X247449D01*
X233349D02*
X244849D01*
X221249D02*
X232749D01*
X218549D02*
X220949D01*
X211049D02*
X213549D01*
X269249Y121382D02*
X280849D01*
X266649D02*
X269149D01*
X257149D02*
X259549D01*
X252549D02*
X256249D01*
X245049D02*
X247449D01*
X233249D02*
X244849D01*
X221249D02*
X232849D01*
X218449D02*
X220949D01*
X211049D02*
X213549D01*
X269249Y121482D02*
X280949D01*
X266649D02*
X269149D01*
X257049D02*
X259549D01*
X252549D02*
X256249D01*
X245049D02*
X247449D01*
X233249D02*
X244949D01*
X221149D02*
X232849D01*
X218349D02*
X220949D01*
X211049D02*
X213549D01*
X266649Y121582D02*
X280949D01*
X257049D02*
X259549D01*
X252449D02*
X256149D01*
X233149D02*
X247449D01*
X221049D02*
X232849D01*
X218349D02*
X220949D01*
X211049D02*
X213549D01*
X266649Y121682D02*
X280949D01*
X257049D02*
X259549D01*
X252349D02*
X256049D01*
X233149D02*
X247449D01*
X221049D02*
X232949D01*
X218249D02*
X220949D01*
X211049D02*
X213549D01*
X266649Y121782D02*
X280949D01*
X257049D02*
X259549D01*
X252349D02*
X256049D01*
X233049D02*
X247449D01*
X221049D02*
X232949D01*
X218149D02*
X220949D01*
X211049D02*
X213549D01*
X266649Y121882D02*
X281049D01*
X257049D02*
X259549D01*
X252249D02*
X255949D01*
X233049D02*
X247449D01*
X218049D02*
X232949D01*
X211049D02*
X213549D01*
X266649Y121982D02*
X281049D01*
X257049D02*
X259549D01*
X252149D02*
X255849D01*
X233049D02*
X247449D01*
X217949D02*
X232949D01*
X211049D02*
X213549D01*
X266649Y122082D02*
X281049D01*
X257049D02*
X259549D01*
X252149D02*
X255849D01*
X233049D02*
X247449D01*
X217949D02*
X232949D01*
X211049D02*
X213549D01*
X266649Y122182D02*
X281049D01*
X257049D02*
X259549D01*
X252049D02*
X255749D01*
X217849D02*
X247449D01*
X211049D02*
X213549D01*
X266649Y122282D02*
X281049D01*
X257049D02*
X259549D01*
X251949D02*
X255649D01*
X217749D02*
X247449D01*
X211049D02*
X213549D01*
X266649Y122382D02*
X281149D01*
X257049D02*
X259549D01*
X251949D02*
X255649D01*
X217649D02*
X247449D01*
X211049D02*
X213549D01*
X266649Y122482D02*
X281149D01*
X257049D02*
X259549D01*
X251849D02*
X255549D01*
X217649D02*
X247449D01*
X211049D02*
X213549D01*
X266649Y122582D02*
X281149D01*
X257049D02*
X259549D01*
X251749D02*
X255449D01*
X217549D02*
X247449D01*
X211049D02*
X213549D01*
X266649Y122682D02*
X275249D01*
X257049D02*
X259549D01*
X251749D02*
X255449D01*
X217449D02*
X247449D01*
X211049D02*
X213549D01*
X266649Y122782D02*
X271549D01*
X257049D02*
X259549D01*
X251649D02*
X255349D01*
X242649D02*
X247449D01*
X233049D02*
X235549D01*
X217349D02*
X223449D01*
X211049D02*
X213549D01*
X266649Y122882D02*
X271549D01*
X257049D02*
X259549D01*
X251549D02*
X255249D01*
X242649D02*
X247449D01*
X233049D02*
X235549D01*
X217249D02*
X223449D01*
X211049D02*
X213549D01*
X266649Y122982D02*
X271549D01*
X257049D02*
X259549D01*
X251549D02*
X255249D01*
X242649D02*
X247449D01*
X233049D02*
X235549D01*
X217249D02*
X223449D01*
X211049D02*
X213549D01*
X266649Y123082D02*
X271549D01*
X257049D02*
X259549D01*
X251449D02*
X255149D01*
X242649D02*
X247449D01*
X233049D02*
X235549D01*
X217149D02*
X223449D01*
X211049D02*
X213549D01*
X266649Y123182D02*
X271549D01*
X257049D02*
X259549D01*
X251349D02*
X255049D01*
X242649D02*
X247449D01*
X233049D02*
X235549D01*
X217049D02*
X223449D01*
X211049D02*
X213549D01*
X266649Y123282D02*
X271549D01*
X257049D02*
X259549D01*
X251349D02*
X254949D01*
X242649D02*
X247449D01*
X233049D02*
X235549D01*
X216949D02*
X223449D01*
X211049D02*
X213549D01*
X266649Y123382D02*
X271549D01*
X257049D02*
X259549D01*
X251249D02*
X254949D01*
X242649D02*
X247449D01*
X233049D02*
X235549D01*
X216949D02*
X223449D01*
X211049D02*
X213549D01*
X266649Y123482D02*
X271549D01*
X257049D02*
X259549D01*
X251149D02*
X254849D01*
X242649D02*
X247549D01*
X233049D02*
X235549D01*
X216849D02*
X223449D01*
X211049D02*
X213549D01*
X266649Y123582D02*
X271549D01*
X257049D02*
X259549D01*
X251149D02*
X254749D01*
X242649D02*
X247549D01*
X233049D02*
X235549D01*
X216749D02*
X223449D01*
X211049D02*
X213549D01*
X266649Y123682D02*
X271549D01*
X257049D02*
X259549D01*
X251049D02*
X254749D01*
X242649D02*
X247549D01*
X233049D02*
X235549D01*
X216649D02*
X223449D01*
X211049D02*
X213549D01*
X266649Y123782D02*
X271549D01*
X257049D02*
X259549D01*
X250949D02*
X254649D01*
X242649D02*
X247549D01*
X233049D02*
X235549D01*
X216649D02*
X223449D01*
X211049D02*
X213549D01*
X266649Y123882D02*
X271549D01*
X257049D02*
X259549D01*
X250949D02*
X254549D01*
X242649D02*
X247549D01*
X233049D02*
X235549D01*
X216549D02*
X223449D01*
X211049D02*
X213549D01*
X266649Y123982D02*
X271549D01*
X257049D02*
X259549D01*
X250849D02*
X254549D01*
X242649D02*
X247549D01*
X233049D02*
X235549D01*
X216449D02*
X223449D01*
X211049D02*
X213549D01*
X266649Y124082D02*
X271549D01*
X257049D02*
X259549D01*
X250749D02*
X254449D01*
X242649D02*
X247549D01*
X233049D02*
X235549D01*
X216349D02*
X223449D01*
X211049D02*
X213549D01*
X266649Y124182D02*
X271549D01*
X257049D02*
X259549D01*
X250649D02*
X254349D01*
X242649D02*
X247549D01*
X233049D02*
X235549D01*
X216249D02*
X223449D01*
X211049D02*
X213549D01*
X266649Y124282D02*
X271549D01*
X257049D02*
X259549D01*
X250649D02*
X254349D01*
X242649D02*
X247549D01*
X233049D02*
X235549D01*
X216249D02*
X223449D01*
X211049D02*
X213549D01*
X266649Y124382D02*
X271549D01*
X257049D02*
X259549D01*
X250549D02*
X254249D01*
X242649D02*
X247549D01*
X233049D02*
X235549D01*
X216149D02*
X223449D01*
X211049D02*
X213549D01*
X266649Y124482D02*
X271549D01*
X257049D02*
X259549D01*
X250449D02*
X254149D01*
X242649D02*
X247549D01*
X233049D02*
X235549D01*
X216049D02*
X223449D01*
X211049D02*
X213549D01*
X266649Y124582D02*
X271549D01*
X257049D02*
X259549D01*
X250449D02*
X254149D01*
X242649D02*
X247549D01*
X233049D02*
X235549D01*
X215949D02*
X223449D01*
X211049D02*
X213549D01*
X266649Y124682D02*
X271549D01*
X257049D02*
X259549D01*
X250349D02*
X254049D01*
X242649D02*
X247549D01*
X233049D02*
X235549D01*
X215949D02*
X223449D01*
X211049D02*
X213549D01*
X266649Y124782D02*
X271549D01*
X257049D02*
X259549D01*
X250249D02*
X253949D01*
X242649D02*
X247549D01*
X233049D02*
X235549D01*
X215849D02*
X223449D01*
X211049D02*
X213549D01*
X266649Y124882D02*
X271549D01*
X257049D02*
X259549D01*
X250249D02*
X253949D01*
X242649D02*
X247549D01*
X233049D02*
X235549D01*
X215749D02*
X223449D01*
X211049D02*
X213549D01*
X266649Y124982D02*
X271549D01*
X257049D02*
X259549D01*
X250149D02*
X253849D01*
X242649D02*
X247549D01*
X233049D02*
X235549D01*
X215649D02*
X223449D01*
X211049D02*
X213549D01*
X266649Y125082D02*
X271549D01*
X257049D02*
X259549D01*
X250049D02*
X253749D01*
X242649D02*
X247549D01*
X233049D02*
X235549D01*
X215649D02*
X223449D01*
X211049D02*
X213549D01*
X266649Y125182D02*
X271549D01*
X257049D02*
X259549D01*
X250049D02*
X253749D01*
X242649D02*
X247549D01*
X233049D02*
X235549D01*
X215549D02*
X223449D01*
X211049D02*
X213549D01*
X257049Y125282D02*
X271549D01*
X249949D02*
X254649D01*
X242649D02*
X247549D01*
X233049D02*
X235549D01*
X215449D02*
X231649D01*
X211049D02*
X213549D01*
X257049Y125382D02*
X271549D01*
X249849D02*
X255249D01*
X242649D02*
X247549D01*
X233049D02*
X235549D01*
X218449D02*
X231949D01*
X215349D02*
X218349D01*
X211049D02*
X213549D01*
X257049Y125482D02*
X271549D01*
X249849D02*
X255649D01*
X242649D02*
X247549D01*
X233049D02*
X235549D01*
X218449D02*
X232049D01*
X215349D02*
X218249D01*
X211049D02*
X213549D01*
X257049Y125582D02*
X271549D01*
X249749D02*
X255849D01*
X242649D02*
X247549D01*
X233049D02*
X235549D01*
X218449D02*
X232149D01*
X215249D02*
X218249D01*
X211049D02*
X213549D01*
X257049Y125682D02*
X271549D01*
X249649D02*
X256049D01*
X242649D02*
X247549D01*
X233049D02*
X235549D01*
X218449D02*
X232249D01*
X215149D02*
X218149D01*
X211049D02*
X213549D01*
X257049Y125782D02*
X271549D01*
X249649D02*
X256149D01*
X242649D02*
X247549D01*
X233049D02*
X235549D01*
X218449D02*
X232349D01*
X215049D02*
X218049D01*
X211049D02*
X213549D01*
X257049Y125882D02*
X271549D01*
X249549D02*
X256249D01*
X242649D02*
X247549D01*
X233049D02*
X235549D01*
X218449D02*
X232449D01*
X214949D02*
X217949D01*
X211049D02*
X213549D01*
X257049Y125982D02*
X271549D01*
X249449D02*
X256349D01*
X242649D02*
X247549D01*
X233049D02*
X235549D01*
X218449D02*
X232549D01*
X214949D02*
X217949D01*
X211049D02*
X213549D01*
X257049Y126082D02*
X271549D01*
X249449D02*
X256449D01*
X242649D02*
X247549D01*
X233049D02*
X235549D01*
X218449D02*
X232549D01*
X214849D02*
X217849D01*
X211049D02*
X213549D01*
X257049Y126182D02*
X271549D01*
X249349D02*
X256549D01*
X242649D02*
X247549D01*
X233049D02*
X235549D01*
X218449D02*
X232649D01*
X214749D02*
X217749D01*
X211049D02*
X213549D01*
X257049Y126282D02*
X271549D01*
X249249D02*
X256649D01*
X242649D02*
X247549D01*
X233049D02*
X235549D01*
X218449D02*
X232649D01*
X214649D02*
X217749D01*
X211049D02*
X213549D01*
X257049Y126382D02*
X271549D01*
X249249D02*
X256749D01*
X242649D02*
X247549D01*
X233049D02*
X235549D01*
X218449D02*
X232749D01*
X214649D02*
X217649D01*
X211049D02*
X213549D01*
X257049Y126482D02*
X271549D01*
X249149D02*
X256749D01*
X242649D02*
X247549D01*
X233049D02*
X235549D01*
X218449D02*
X232749D01*
X214549D02*
X217549D01*
X211049D02*
X213549D01*
X257049Y126582D02*
X271549D01*
X249049D02*
X256849D01*
X242649D02*
X247549D01*
X233049D02*
X235549D01*
X218449D02*
X232849D01*
X214449D02*
X217449D01*
X211049D02*
X213549D01*
X257049Y126682D02*
X271549D01*
X249049D02*
X256949D01*
X242649D02*
X247549D01*
X233049D02*
X235549D01*
X218449D02*
X232849D01*
X214349D02*
X217449D01*
X211049D02*
X213549D01*
X257049Y126782D02*
X271549D01*
X248949D02*
X256949D01*
X242649D02*
X247549D01*
X233049D02*
X235549D01*
X218449D02*
X232849D01*
X214349D02*
X217349D01*
X211049D02*
X213549D01*
X248849Y126882D02*
X271549D01*
X242649D02*
X247549D01*
X233049D02*
X235549D01*
X218449D02*
X232949D01*
X214249D02*
X217249D01*
X211049D02*
X213549D01*
X248849Y126982D02*
X271549D01*
X242649D02*
X247549D01*
X233049D02*
X235549D01*
X218449D02*
X232949D01*
X214149D02*
X217149D01*
X211049D02*
X213549D01*
X248749Y127082D02*
X271549D01*
X242649D02*
X247549D01*
X233049D02*
X235549D01*
X218449D02*
X232949D01*
X214049D02*
X217149D01*
X211049D02*
X213549D01*
X248649Y127182D02*
X271549D01*
X242649D02*
X247549D01*
X233049D02*
X235549D01*
X218449D02*
X232949D01*
X214049D02*
X217049D01*
X211049D02*
X213549D01*
X248649Y127282D02*
X271549D01*
X242649D02*
X247549D01*
X218449D02*
X235549D01*
X213949D02*
X216949D01*
X211049D02*
X213549D01*
X248549Y127382D02*
X271549D01*
X242649D02*
X247549D01*
X218449D02*
X235549D01*
X213849D02*
X216949D01*
X211049D02*
X213549D01*
X248449Y127482D02*
X271549D01*
X242649D02*
X247549D01*
X218449D02*
X235549D01*
X213749D02*
X216849D01*
X211049D02*
X213549D01*
X248449Y127582D02*
X271549D01*
X242649D02*
X247549D01*
X218449D02*
X235549D01*
X213649D02*
X216749D01*
X211049D02*
X213549D01*
X248349Y127682D02*
X271549D01*
X242649D02*
X247549D01*
X218449D02*
X235549D01*
X211049D02*
X216649D01*
X248249Y127782D02*
X271549D01*
X242649D02*
X247549D01*
X218449D02*
X235549D01*
X211049D02*
X216649D01*
X248249Y127882D02*
X271549D01*
X242649D02*
X247549D01*
X218449D02*
X235549D01*
X211049D02*
X216549D01*
X266649Y127982D02*
X271549D01*
X248149D02*
X259549D01*
X242649D02*
X247549D01*
X218449D02*
X235549D01*
X211049D02*
X216449D01*
X266649Y128082D02*
X271549D01*
X254649D02*
X259549D01*
X242649D02*
X247549D01*
X233049D02*
X235549D01*
X218449D02*
X223549D01*
X211049D02*
X216349D01*
X266649Y128182D02*
X271549D01*
X254649D02*
X259549D01*
X242649D02*
X247549D01*
X233049D02*
X235549D01*
X218449D02*
X223549D01*
X211049D02*
X216349D01*
X266649Y128282D02*
X271549D01*
X254649D02*
X259549D01*
X242649D02*
X247549D01*
X233049D02*
X235549D01*
X218449D02*
X223549D01*
X211049D02*
X216249D01*
X266649Y128382D02*
X271549D01*
X254649D02*
X259549D01*
X242649D02*
X247549D01*
X233049D02*
X235549D01*
X218449D02*
X223549D01*
X211049D02*
X216149D01*
X266649Y128482D02*
X271549D01*
X254649D02*
X259549D01*
X242649D02*
X247549D01*
X233049D02*
X235549D01*
X218449D02*
X223549D01*
X211049D02*
X216049D01*
X266649Y128582D02*
X271549D01*
X254649D02*
X259549D01*
X242649D02*
X247549D01*
X233049D02*
X235549D01*
X218449D02*
X223549D01*
X211049D02*
X216049D01*
X266649Y128682D02*
X271549D01*
X254649D02*
X259549D01*
X242649D02*
X247549D01*
X233049D02*
X235549D01*
X218449D02*
X223549D01*
X211049D02*
X215949D01*
X266649Y128782D02*
X271549D01*
X254649D02*
X259549D01*
X242649D02*
X247549D01*
X233049D02*
X235549D01*
X218449D02*
X223549D01*
X211049D02*
X215849D01*
X266649Y128882D02*
X271549D01*
X254649D02*
X259549D01*
X242649D02*
X247549D01*
X233049D02*
X235549D01*
X218449D02*
X223549D01*
X211049D02*
X215749D01*
X266649Y128982D02*
X271549D01*
X254649D02*
X259549D01*
X242649D02*
X247549D01*
X233049D02*
X235549D01*
X218449D02*
X223549D01*
X211049D02*
X215649D01*
X266649Y129082D02*
X271549D01*
X254649D02*
X259549D01*
X242649D02*
X247549D01*
X233049D02*
X235549D01*
X218449D02*
X223549D01*
X211049D02*
X215649D01*
X266649Y129182D02*
X271549D01*
X254649D02*
X259549D01*
X242649D02*
X247549D01*
X233049D02*
X235549D01*
X218449D02*
X223549D01*
X211049D02*
X215549D01*
X266649Y129282D02*
X271549D01*
X254649D02*
X259549D01*
X242649D02*
X247549D01*
X233049D02*
X235549D01*
X218449D02*
X223549D01*
X211049D02*
X215449D01*
X266649Y129382D02*
X271549D01*
X254649D02*
X259549D01*
X242649D02*
X247549D01*
X233049D02*
X235549D01*
X218449D02*
X223549D01*
X211049D02*
X215349D01*
X266649Y129482D02*
X271549D01*
X254649D02*
X259549D01*
X242649D02*
X247549D01*
X233049D02*
X235549D01*
X218449D02*
X223549D01*
X211049D02*
X215349D01*
X266649Y129582D02*
X271549D01*
X254649D02*
X259549D01*
X242649D02*
X247549D01*
X233049D02*
X235549D01*
X218449D02*
X223549D01*
X211049D02*
X215249D01*
X266649Y129682D02*
X271549D01*
X254649D02*
X259549D01*
X242649D02*
X247549D01*
X233049D02*
X235549D01*
X218449D02*
X223549D01*
X211049D02*
X215149D01*
X266649Y129782D02*
X271549D01*
X254649D02*
X259549D01*
X242649D02*
X247549D01*
X233049D02*
X235549D01*
X218449D02*
X223549D01*
X211049D02*
X215049D01*
X266649Y129882D02*
X271549D01*
X254649D02*
X259549D01*
X242649D02*
X247549D01*
X233049D02*
X235549D01*
X218449D02*
X223549D01*
X211049D02*
X214949D01*
X266649Y129982D02*
X271549D01*
X254649D02*
X259549D01*
X242649D02*
X247549D01*
X233049D02*
X235549D01*
X218449D02*
X223549D01*
X211049D02*
X214949D01*
X266649Y130082D02*
X271549D01*
X254649D02*
X259549D01*
X242649D02*
X247549D01*
X233049D02*
X235549D01*
X218449D02*
X223549D01*
X211049D02*
X214849D01*
X266649Y130182D02*
X271549D01*
X254649D02*
X259549D01*
X242649D02*
X247549D01*
X233049D02*
X235549D01*
X218449D02*
X223549D01*
X211049D02*
X214749D01*
X266649Y130282D02*
X271549D01*
X254649D02*
X259549D01*
X242649D02*
X247549D01*
X233049D02*
X235549D01*
X218449D02*
X223549D01*
X211049D02*
X214649D01*
X266649Y130382D02*
X271549D01*
X254649D02*
X259549D01*
X242649D02*
X247549D01*
X233049D02*
X235549D01*
X218449D02*
X223549D01*
X211049D02*
X214649D01*
X242649Y130482D02*
X271549D01*
X218449D02*
X235549D01*
X211049D02*
X214549D01*
X242649Y130582D02*
X271549D01*
X218449D02*
X235549D01*
X211049D02*
X214449D01*
X242649Y130682D02*
X271549D01*
X218449D02*
X235549D01*
X211049D02*
X214349D01*
X242649Y130782D02*
X271549D01*
X218449D02*
X235549D01*
X211049D02*
X214249D01*
X242649Y130882D02*
X271549D01*
X218449D02*
X235549D01*
X211049D02*
X214149D01*
X242649Y130982D02*
X271549D01*
X218449D02*
X235549D01*
X211049D02*
X214149D01*
X242649Y131082D02*
X271549D01*
X221049D02*
X235549D01*
X218449D02*
X220949D01*
X211049D02*
X214049D01*
X242649Y131182D02*
X271549D01*
X221049D02*
X235549D01*
X218449D02*
X220949D01*
X211049D02*
X213949D01*
X242649Y131282D02*
X271549D01*
X233049D02*
X235549D01*
X221049D02*
X232949D01*
X218449D02*
X220949D01*
X211049D02*
X213849D01*
X242649Y131382D02*
X271549D01*
X233149D02*
X235549D01*
X221049D02*
X232949D01*
X218449D02*
X220949D01*
X211049D02*
X213749D01*
X257149Y131482D02*
X271549D01*
X242649D02*
X257049D01*
X233149D02*
X235549D01*
X221049D02*
X232949D01*
X218549D02*
X220949D01*
X211049D02*
X213749D01*
X257149Y131582D02*
X271549D01*
X245049D02*
X257049D01*
X242649D02*
X244949D01*
X233149D02*
X235549D01*
X221149D02*
X232949D01*
X218549D02*
X220949D01*
X211049D02*
X213649D01*
X257249Y131682D02*
X271549D01*
X245049D02*
X256949D01*
X242649D02*
X244949D01*
X233249D02*
X235549D01*
X221149D02*
X232849D01*
X218649D02*
X220949D01*
X211049D02*
X213549D01*
X257249Y131782D02*
X271449D01*
X245049D02*
X256949D01*
X242649D02*
X244849D01*
X233249D02*
X235549D01*
X221249D02*
X232849D01*
X218649D02*
X220949D01*
X211049D02*
X213449D01*
X257349Y131882D02*
X271449D01*
X245049D02*
X256849D01*
X242649D02*
X244849D01*
X233349D02*
X235549D01*
X221249D02*
X232849D01*
X218749D02*
X220949D01*
X211049D02*
X213349D01*
X257349Y131982D02*
X271349D01*
X245049D02*
X256749D01*
X242649D02*
X244749D01*
X233449D02*
X235549D01*
X221349D02*
X232749D01*
X218849D02*
X220949D01*
X211049D02*
X213249D01*
X257449Y132082D02*
X271349D01*
X245049D02*
X256749D01*
X242649D02*
X244649D01*
X233449D02*
X235549D01*
X221449D02*
X232749D01*
X218849D02*
X220949D01*
X211049D02*
X213149D01*
X257549Y132182D02*
X271249D01*
X245049D02*
X256649D01*
X242649D02*
X244649D01*
X233549D02*
X235549D01*
X221449D02*
X232649D01*
X218949D02*
X220949D01*
X211049D02*
X213049D01*
X257649Y132282D02*
X271149D01*
X245049D02*
X256549D01*
X242649D02*
X244549D01*
X233649D02*
X235549D01*
X221549D02*
X232649D01*
X219049D02*
X220949D01*
X211049D02*
X212949D01*
X257749Y132382D02*
X271049D01*
X245049D02*
X256449D01*
X242649D02*
X244449D01*
X233749D02*
X235549D01*
X221649D02*
X232549D01*
X219149D02*
X220949D01*
X211049D02*
X212849D01*
X257849Y132482D02*
X270949D01*
X245049D02*
X256349D01*
X242649D02*
X244349D01*
X233849D02*
X235549D01*
X221749D02*
X232549D01*
X219249D02*
X220949D01*
X211049D02*
X212749D01*
X257949Y132582D02*
X270749D01*
X245049D02*
X256249D01*
X242649D02*
X244249D01*
X233949D02*
X235549D01*
X221849D02*
X232449D01*
X219349D02*
X220949D01*
X211049D02*
X212649D01*
X258049Y132682D02*
X270649D01*
X245049D02*
X256149D01*
X242649D02*
X244149D01*
X234049D02*
X235549D01*
X221949D02*
X232349D01*
X219449D02*
X220949D01*
X211049D02*
X212549D01*
X258249Y132782D02*
X270449D01*
X245049D02*
X256049D01*
X242649D02*
X243949D01*
X234249D02*
X235549D01*
X222149D02*
X232249D01*
X219649D02*
X220949D01*
X211049D02*
X212449D01*
X258449Y132882D02*
X270249D01*
X245049D02*
X255849D01*
X242649D02*
X243749D01*
X234349D02*
X235549D01*
X222249D02*
X232249D01*
X219849D02*
X220949D01*
X211049D02*
X212249D01*
X258649Y132982D02*
X269949D01*
X245049D02*
X255649D01*
X242649D02*
X243549D01*
X234649D02*
X235549D01*
X222549D02*
X232049D01*
X220149D02*
X220949D01*
X211049D02*
X211949D01*
X259049Y133082D02*
X269549D01*
X245049D02*
X255349D01*
X242649D02*
X243149D01*
X234949D02*
X235549D01*
X222849D02*
X231949D01*
X220549D02*
X220949D01*
X211049D02*
X211649D01*
X245049Y133182D02*
X254749D01*
X223349D02*
X231749D01*
D33*
X238307Y158464D02*
X249606D01*
Y154035D02*
Y158464D01*
X238307Y154035D02*
X249606D01*
X238307D02*
Y158464D01*
X187242Y136102D02*
Y147401D01*
X182813Y136102D02*
X187242D01*
X182813D02*
Y147401D01*
X187242D01*
X166634Y128642D02*
X203445D01*
X166634Y108661D02*
Y128642D01*
X203642Y108661D02*
Y128445D01*
X251968Y149212D02*
Y169291D01*
X291338Y149212D02*
Y169291D01*
X282382Y149212D02*
X291338D01*
X117618Y243504D02*
X142913D01*
X117618D02*
Y285039D01*
X142913D01*
Y243504D02*
Y285039D01*
X253150Y241535D02*
Y283071D01*
X227854D02*
X253150D01*
X227854Y241535D02*
Y283071D01*
Y241535D02*
X253150D01*
D34*
X249606Y165452D02*
Y168405D01*
D35*
X175854Y261760D02*
X194654D01*
X175554Y261710D02*
X194954D01*
X175354Y261660D02*
X195154D01*
X175154Y261610D02*
X195354D01*
X175004Y261560D02*
X195504D01*
X174854Y261510D02*
X195654D01*
X174754Y261460D02*
X195754D01*
X174604Y261410D02*
X195904D01*
X198404D02*
X198904D01*
X174504Y261360D02*
X196004D01*
X198254D02*
X199004D01*
X174404Y261310D02*
X189104D01*
X194754D02*
X196104D01*
X198204D02*
X199104D01*
X174304Y261260D02*
X188804D01*
X195004D02*
X196204D01*
X198154D02*
X198504D01*
X198804D02*
X199154D01*
X174204Y261210D02*
X188654D01*
X195204D02*
X196304D01*
X198054D02*
X198354D01*
X198954D02*
X199204D01*
X174154Y261160D02*
X188454D01*
X195404D02*
X196354D01*
X198054D02*
X198304D01*
X199004D02*
X199254D01*
X174054Y261110D02*
X188354D01*
X195554D02*
X196454D01*
X198004D02*
X198204D01*
X199054D02*
X199304D01*
X173954Y261060D02*
X188204D01*
X195654D02*
X196504D01*
X197954D02*
X198154D01*
X198304D02*
X198754D01*
X199104D02*
X199304D01*
X173904Y261010D02*
X188104D01*
X195804D02*
X196604D01*
X197954D02*
X198154D01*
X198304D02*
X198904D01*
X199154D02*
X199354D01*
X173854Y260960D02*
X188004D01*
X195904D02*
X196654D01*
X197904D02*
X198104D01*
X198304D02*
X198954D01*
X199204D02*
X199354D01*
X173754Y260910D02*
X187904D01*
X196004D02*
X196754D01*
X197904D02*
X198104D01*
X198304D02*
X198454D01*
X198704D02*
X198954D01*
X199204D02*
X199404D01*
X173704Y260860D02*
X187804D01*
X196104D02*
X196804D01*
X197904D02*
X198054D01*
X198304D02*
X198454D01*
X198754D02*
X198954D01*
X199254D02*
X199404D01*
X173654Y260810D02*
X187704D01*
X196154D02*
X196854D01*
X197854D02*
X198054D01*
X198304D02*
X198454D01*
X198754D02*
X198954D01*
X199254D02*
X199404D01*
X173554Y260760D02*
X187654D01*
X196254D02*
X196954D01*
X197854D02*
X198054D01*
X198304D02*
X198454D01*
X198754D02*
X198954D01*
X199254D02*
X199404D01*
X173504Y260710D02*
X187554D01*
X196304D02*
X197004D01*
X197854D02*
X198054D01*
X198304D02*
X198954D01*
X199254D02*
X199454D01*
X173454Y260660D02*
X187504D01*
X196404D02*
X197054D01*
X197854D02*
X198054D01*
X198304D02*
X198904D01*
X199254D02*
X199454D01*
X173404Y260610D02*
X187404D01*
X196454D02*
X197104D01*
X197854D02*
X198004D01*
X198304D02*
X198804D01*
X199254D02*
X199454D01*
X173354Y260560D02*
X187354D01*
X196554D02*
X197154D01*
X197854D02*
X198054D01*
X198304D02*
X198454D01*
X198554D02*
X198804D01*
X199254D02*
X199454D01*
X173304Y260510D02*
X187304D01*
X196604D02*
X197204D01*
X197854D02*
X198054D01*
X198304D02*
X198454D01*
X198654D02*
X198854D01*
X199254D02*
X199404D01*
X173254Y260460D02*
X187254D01*
X196654D02*
X197254D01*
X197854D02*
X198054D01*
X198304D02*
X198454D01*
X198654D02*
X198904D01*
X199254D02*
X199404D01*
X173204Y260410D02*
X187154D01*
X196754D02*
X197304D01*
X197904D02*
X198054D01*
X198304D02*
X198454D01*
X198704D02*
X198904D01*
X199204D02*
X199404D01*
X173154Y260360D02*
X187104D01*
X196804D02*
X197354D01*
X197904D02*
X198104D01*
X198304D02*
X198454D01*
X198754D02*
X198954D01*
X199204D02*
X199404D01*
X173104Y260310D02*
X187054D01*
X196854D02*
X197404D01*
X197954D02*
X198104D01*
X198304D02*
X198454D01*
X198754D02*
X199004D01*
X199154D02*
X199354D01*
X173054Y260260D02*
X187004D01*
X196904D02*
X197454D01*
X197954D02*
X198154D01*
X198304D02*
X198454D01*
X198804D02*
X199004D01*
X199154D02*
X199354D01*
X173004Y260210D02*
X186954D01*
X196954D02*
X197504D01*
X198004D02*
X198204D01*
X199104D02*
X199304D01*
X172954Y260160D02*
X186904D01*
X197004D02*
X197504D01*
X198004D02*
X198254D01*
X199004D02*
X199254D01*
X172954Y260110D02*
X186854D01*
X197054D02*
X197554D01*
X198054D02*
X198354D01*
X198954D02*
X199204D01*
X172904Y260060D02*
X186854D01*
X197104D02*
X197604D01*
X198104D02*
X198454D01*
X198854D02*
X199154D01*
X172854Y260010D02*
X186804D01*
X197154D02*
X197654D01*
X198204D02*
X199104D01*
X172804Y259960D02*
X186754D01*
X197154D02*
X197704D01*
X198254D02*
X199054D01*
X172804Y259910D02*
X186704D01*
X197204D02*
X197704D01*
X198404D02*
X198904D01*
X172754Y259860D02*
X186654D01*
X197254D02*
X197754D01*
X172704Y259810D02*
X186604D01*
X197304D02*
X197804D01*
X172654Y259760D02*
X186604D01*
X197354D02*
X197804D01*
X172654Y259710D02*
X186554D01*
X197354D02*
X197854D01*
X172604Y259660D02*
X186504D01*
X197404D02*
X197904D01*
X172604Y259610D02*
X186504D01*
X197454D02*
X197904D01*
X172554Y259560D02*
X186454D01*
X197454D02*
X197954D01*
X172504Y259510D02*
X186404D01*
X197504D02*
X197954D01*
X172504Y259460D02*
X186404D01*
X197554D02*
X198004D01*
X172454Y259410D02*
X186354D01*
X197554D02*
X198054D01*
X172454Y259360D02*
X186354D01*
X197604D02*
X198054D01*
X172404Y259310D02*
X186304D01*
X197604D02*
X198104D01*
X172404Y259260D02*
X186304D01*
X197654D02*
X198104D01*
X172354Y259210D02*
X186254D01*
X197704D02*
X198154D01*
X172354Y259160D02*
X183304D01*
X183554D02*
X186254D01*
X193904D02*
X194104D01*
X197704D02*
X198154D01*
X172304Y259110D02*
X183104D01*
X183704D02*
X186204D01*
X193704D02*
X194304D01*
X197754D02*
X198154D01*
X172304Y259060D02*
X183004D01*
X183804D02*
X186204D01*
X193604D02*
X194404D01*
X197754D02*
X198204D01*
X172304Y259010D02*
X174304D01*
X174354D02*
X174404D01*
X175304D02*
X175404D01*
X175454D02*
X177604D01*
X178504D02*
X178554D01*
X178604D02*
X178704D01*
X178754D02*
X180854D01*
X181954D02*
X182004D01*
X182054D02*
X182954D01*
X183904D02*
X186154D01*
X193554D02*
X194504D01*
X197754D02*
X198204D01*
X172254Y258960D02*
X174254D01*
X175604D02*
X177604D01*
X178754D02*
X180804D01*
X182054D02*
X182904D01*
X183954D02*
X186154D01*
X187904D02*
X192454D01*
X193504D02*
X194554D01*
X197804D02*
X198254D01*
X172254Y258910D02*
X174254D01*
X175604D02*
X177604D01*
X178804D02*
X180804D01*
X182054D02*
X182854D01*
X184004D02*
X186154D01*
X187904D02*
X192504D01*
X193454D02*
X194604D01*
X197804D02*
X198254D01*
X172204Y258860D02*
X174304D01*
X175604D02*
X177554D01*
X178804D02*
X180804D01*
X182004D02*
X182804D01*
X184054D02*
X186104D01*
X187904D02*
X192454D01*
X193404D02*
X194604D01*
X197854D02*
X198254D01*
X172204Y258810D02*
X174304D01*
X175604D02*
X177554D01*
X178804D02*
X180754D01*
X182004D02*
X182754D01*
X184054D02*
X186104D01*
X187904D02*
X192454D01*
X193354D02*
X194654D01*
X197854D02*
X198304D01*
X172204Y258760D02*
X174304D01*
X175654D02*
X177554D01*
X178804D02*
X180754D01*
X182004D02*
X182754D01*
X184104D02*
X186054D01*
X187904D02*
X192454D01*
X193354D02*
X194704D01*
X197854D02*
X198304D01*
X172154Y258710D02*
X174304D01*
X175654D02*
X177504D01*
X178854D02*
X180754D01*
X182004D02*
X182704D01*
X184104D02*
X186054D01*
X187904D02*
X192454D01*
X193304D02*
X194704D01*
X197904D02*
X198354D01*
X172154Y258660D02*
X174354D01*
X175654D02*
X177504D01*
X178854D02*
X180754D01*
X181954D02*
X182704D01*
X184154D02*
X186054D01*
X187904D02*
X192454D01*
X193304D02*
X194754D01*
X197904D02*
X198354D01*
X172154Y258610D02*
X174354D01*
X175654D02*
X177504D01*
X178854D02*
X180754D01*
X181954D02*
X182704D01*
X184154D02*
X186004D01*
X187904D02*
X192454D01*
X193304D02*
X194754D01*
X197954D02*
X198354D01*
X172104Y258560D02*
X174354D01*
X175704D02*
X177454D01*
X178904D02*
X180704D01*
X181954D02*
X182654D01*
X184154D02*
X186004D01*
X187904D02*
X192454D01*
X193254D02*
X194754D01*
X197954D02*
X198354D01*
X172104Y258510D02*
X174354D01*
X175704D02*
X177454D01*
X178904D02*
X180704D01*
X181954D02*
X182654D01*
X184154D02*
X186004D01*
X187904D02*
X192454D01*
X193254D02*
X194754D01*
X197954D02*
X198404D01*
X172104Y258460D02*
X174404D01*
X175704D02*
X177454D01*
X178904D02*
X180704D01*
X181904D02*
X182654D01*
X184154D02*
X186004D01*
X187904D02*
X192454D01*
X193254D02*
X194754D01*
X197954D02*
X198404D01*
X172104Y258410D02*
X174404D01*
X175704D02*
X177454D01*
X178904D02*
X180704D01*
X181904D02*
X182654D01*
X184204D02*
X185954D01*
X187904D02*
X192454D01*
X193254D02*
X194754D01*
X198004D02*
X198404D01*
X172054Y258360D02*
X174404D01*
X175704D02*
X177404D01*
X178954D02*
X180654D01*
X181904D02*
X182654D01*
X184154D02*
X185954D01*
X187904D02*
X192454D01*
X193254D02*
X194754D01*
X198004D02*
X198454D01*
X172054Y258310D02*
X174404D01*
X175754D02*
X177404D01*
X178954D02*
X180654D01*
X181904D02*
X182654D01*
X184154D02*
X185954D01*
X187904D02*
X192454D01*
X193254D02*
X194754D01*
X198004D02*
X198454D01*
X172054Y258260D02*
X174454D01*
X175754D02*
X177404D01*
X178954D02*
X180654D01*
X181854D02*
X182704D01*
X184154D02*
X185954D01*
X187904D02*
X192454D01*
X193254D02*
X194754D01*
X198004D02*
X198454D01*
X172054Y258210D02*
X174454D01*
X175754D02*
X177354D01*
X179004D02*
X180654D01*
X181854D02*
X182704D01*
X184154D02*
X185904D01*
X187904D02*
X192454D01*
X193304D02*
X194754D01*
X198054D02*
X198454D01*
X172054Y258160D02*
X174454D01*
X175754D02*
X177354D01*
X179004D02*
X180604D01*
X181854D02*
X182704D01*
X184154D02*
X185904D01*
X187904D02*
X192454D01*
X193304D02*
X194704D01*
X198054D02*
X198454D01*
X172004Y258110D02*
X174504D01*
X175804D02*
X177354D01*
X179004D02*
X180604D01*
X181854D02*
X182704D01*
X184104D02*
X185904D01*
X187904D02*
X192454D01*
X193304D02*
X194704D01*
X198054D02*
X198504D01*
X172004Y258060D02*
X174504D01*
X175804D02*
X177354D01*
X179004D02*
X180604D01*
X181804D02*
X182754D01*
X184104D02*
X185904D01*
X187904D02*
X192454D01*
X193354D02*
X194704D01*
X198054D02*
X198504D01*
X172004Y258010D02*
X174504D01*
X175804D02*
X177304D01*
X179054D02*
X180604D01*
X181804D02*
X182754D01*
X184054D02*
X185904D01*
X187904D02*
X192454D01*
X193354D02*
X194654D01*
X198054D02*
X198504D01*
X172004Y257960D02*
X174504D01*
X175804D02*
X177304D01*
X179054D02*
X180554D01*
X181804D02*
X182804D01*
X184004D02*
X185904D01*
X187904D02*
X192454D01*
X193404D02*
X194604D01*
X198104D02*
X198504D01*
X172004Y257910D02*
X174554D01*
X175804D02*
X177304D01*
X179054D02*
X180554D01*
X181754D02*
X182854D01*
X184004D02*
X185904D01*
X187904D02*
X192454D01*
X193454D02*
X194604D01*
X198104D02*
X198504D01*
X172004Y257860D02*
X174554D01*
X175854D02*
X177254D01*
X179104D02*
X180554D01*
X181754D02*
X182904D01*
X183954D02*
X185854D01*
X187904D02*
X192504D01*
X193504D02*
X194554D01*
X198104D02*
X198504D01*
X172004Y257810D02*
X174554D01*
X175854D02*
X177254D01*
X179104D02*
X180554D01*
X181754D02*
X182954D01*
X183904D02*
X185854D01*
X187904D02*
X192454D01*
X193554D02*
X194454D01*
X198104D02*
X198504D01*
X171954Y257760D02*
X174554D01*
X175854D02*
X177254D01*
X179104D02*
X180554D01*
X181754D02*
X183054D01*
X183804D02*
X185854D01*
X187904D02*
X189254D01*
X193604D02*
X194404D01*
X198104D02*
X198554D01*
X171954Y257710D02*
X174604D01*
X175854D02*
X177204D01*
X179104D02*
X180504D01*
X181704D02*
X183154D01*
X183704D02*
X185854D01*
X187904D02*
X189254D01*
X193754D02*
X194304D01*
X198104D02*
X198554D01*
X171954Y257660D02*
X174604D01*
X175904D02*
X177204D01*
X179154D02*
X180504D01*
X181704D02*
X183354D01*
X183404D02*
X185854D01*
X187904D02*
X189254D01*
X193954D02*
X194004D01*
X198104D02*
X198554D01*
X171954Y257610D02*
X174604D01*
X175904D02*
X177204D01*
X179154D02*
X180504D01*
X181704D02*
X185854D01*
X187904D02*
X189254D01*
X198104D02*
X198554D01*
X171954Y257560D02*
X174604D01*
X175904D02*
X177204D01*
X179154D02*
X180504D01*
X181704D02*
X185854D01*
X187904D02*
X189254D01*
X198104D02*
X198554D01*
X171954Y257510D02*
X174654D01*
X175904D02*
X177154D01*
X179204D02*
X180504D01*
X181654D02*
X185854D01*
X187904D02*
X189254D01*
X198104D02*
X198554D01*
X171954Y257460D02*
X174654D01*
X175904D02*
X177154D01*
X179204D02*
X180454D01*
X181654D02*
X185854D01*
X187904D02*
X189254D01*
X198104D02*
X198554D01*
X171954Y257410D02*
X174654D01*
X175954D02*
X177154D01*
X179204D02*
X180454D01*
X181654D02*
X185854D01*
X187904D02*
X189254D01*
X198104D02*
X198554D01*
X171954Y257360D02*
X174704D01*
X175954D02*
X177104D01*
X179204D02*
X180454D01*
X181654D02*
X185854D01*
X187904D02*
X189254D01*
X198104D02*
X198554D01*
X171954Y257310D02*
X174704D01*
X175954D02*
X177104D01*
X179254D02*
X180454D01*
X181604D02*
X185854D01*
X187904D02*
X189254D01*
X198104D02*
X198554D01*
X171954Y257260D02*
X174704D01*
X175954D02*
X177104D01*
X179254D02*
X180404D01*
X181604D02*
X185854D01*
X187904D02*
X189254D01*
X198104D02*
X198554D01*
X171954Y257210D02*
X174704D01*
X176004D02*
X177104D01*
X179254D02*
X180404D01*
X181604D02*
X185854D01*
X187904D02*
X189254D01*
X198104D02*
X198554D01*
X171954Y257160D02*
X174754D01*
X176004D02*
X177054D01*
X179304D02*
X180404D01*
X181604D02*
X185854D01*
X187904D02*
X189254D01*
X198104D02*
X198554D01*
X171954Y257110D02*
X174754D01*
X176004D02*
X177054D01*
X179304D02*
X180404D01*
X181554D02*
X185854D01*
X187904D02*
X189254D01*
X198104D02*
X198554D01*
X171954Y257060D02*
X174754D01*
X176004D02*
X177054D01*
X178104D02*
X178154D01*
X179304D02*
X180354D01*
X181554D02*
X182754D01*
X184054D02*
X185854D01*
X187904D02*
X189254D01*
X193354D02*
X194654D01*
X198104D02*
X198554D01*
X171954Y257010D02*
X174754D01*
X176054D02*
X177004D01*
X178104D02*
X178204D01*
X179304D02*
X180354D01*
X181554D02*
X182754D01*
X184054D02*
X185854D01*
X187904D02*
X189254D01*
X193354D02*
X194654D01*
X198104D02*
X198554D01*
X171954Y256960D02*
X174804D01*
X176054D02*
X177004D01*
X178104D02*
X178204D01*
X179354D02*
X180354D01*
X181504D02*
X182754D01*
X184054D02*
X185854D01*
X187904D02*
X189254D01*
X193354D02*
X194654D01*
X198104D02*
X198554D01*
X171954Y256910D02*
X174804D01*
X176054D02*
X177004D01*
X178104D02*
X178204D01*
X179354D02*
X180354D01*
X181504D02*
X182754D01*
X184054D02*
X185854D01*
X187904D02*
X189254D01*
X193354D02*
X194654D01*
X198104D02*
X198554D01*
X171954Y256860D02*
X174804D01*
X176054D02*
X176954D01*
X178054D02*
X178204D01*
X179354D02*
X180304D01*
X181504D02*
X182754D01*
X184054D02*
X185854D01*
X187904D02*
X189254D01*
X193354D02*
X194654D01*
X198104D02*
X198554D01*
X171954Y256810D02*
X174804D01*
X176054D02*
X176954D01*
X178054D02*
X178254D01*
X179354D02*
X180304D01*
X181504D02*
X182804D01*
X184054D02*
X185854D01*
X187904D02*
X189254D01*
X193354D02*
X194654D01*
X198104D02*
X198554D01*
X171954Y256760D02*
X174854D01*
X176104D02*
X176954D01*
X178054D02*
X178254D01*
X179404D02*
X180304D01*
X181454D02*
X182754D01*
X184054D02*
X185854D01*
X187904D02*
X189254D01*
X193354D02*
X194654D01*
X198104D02*
X198554D01*
X171954Y256710D02*
X174854D01*
X176104D02*
X176954D01*
X178004D02*
X178254D01*
X179404D02*
X180304D01*
X181454D02*
X182754D01*
X184054D02*
X185854D01*
X187904D02*
X189254D01*
X193354D02*
X194654D01*
X198104D02*
X198554D01*
X171954Y256660D02*
X174854D01*
X176104D02*
X176904D01*
X178004D02*
X178304D01*
X179404D02*
X180304D01*
X181454D02*
X182754D01*
X184054D02*
X185854D01*
X187904D02*
X189254D01*
X193354D02*
X194654D01*
X198104D02*
X198554D01*
X171954Y256610D02*
X174904D01*
X176104D02*
X176904D01*
X178004D02*
X178304D01*
X179454D02*
X180254D01*
X181454D02*
X182754D01*
X184054D02*
X185854D01*
X187904D02*
X189254D01*
X193354D02*
X194654D01*
X198104D02*
X198554D01*
X171954Y256560D02*
X174904D01*
X176154D02*
X176904D01*
X178004D02*
X178304D01*
X179454D02*
X180254D01*
X181404D02*
X182754D01*
X184054D02*
X185854D01*
X187904D02*
X189254D01*
X193354D02*
X194654D01*
X198104D02*
X198554D01*
X171954Y256510D02*
X174904D01*
X176154D02*
X176854D01*
X177954D02*
X178304D01*
X179454D02*
X180254D01*
X181404D02*
X182754D01*
X184054D02*
X185854D01*
X187904D02*
X192254D01*
X193354D02*
X194654D01*
X198104D02*
X198554D01*
X171954Y256460D02*
X174904D01*
X176154D02*
X176854D01*
X177954D02*
X178354D01*
X179454D02*
X180254D01*
X181404D02*
X182754D01*
X184054D02*
X185854D01*
X187904D02*
X192254D01*
X193354D02*
X194654D01*
X198104D02*
X198554D01*
X171954Y256410D02*
X174954D01*
X176154D02*
X176854D01*
X177954D02*
X178354D01*
X179504D02*
X180204D01*
X181404D02*
X182754D01*
X184054D02*
X185854D01*
X187904D02*
X192254D01*
X193354D02*
X194654D01*
X198104D02*
X198554D01*
X171954Y256360D02*
X174954D01*
X176154D02*
X176804D01*
X177904D02*
X178354D01*
X179504D02*
X180204D01*
X181354D02*
X182754D01*
X184054D02*
X185854D01*
X187904D02*
X192254D01*
X193354D02*
X194654D01*
X198104D02*
X198554D01*
X171954Y256310D02*
X174954D01*
X176204D02*
X176804D01*
X177904D02*
X178404D01*
X179504D02*
X180204D01*
X181354D02*
X182754D01*
X184054D02*
X185854D01*
X187904D02*
X192254D01*
X193354D02*
X194654D01*
X198104D02*
X198554D01*
X171954Y256260D02*
X174954D01*
X176204D02*
X176804D01*
X177904D02*
X178404D01*
X179554D02*
X180204D01*
X181354D02*
X182754D01*
X184054D02*
X185854D01*
X187904D02*
X192254D01*
X193354D02*
X194654D01*
X198104D02*
X198554D01*
X171954Y256210D02*
X175004D01*
X176204D02*
X176804D01*
X177904D02*
X178404D01*
X179554D02*
X180154D01*
X181304D02*
X182754D01*
X184054D02*
X185854D01*
X187904D02*
X192254D01*
X193354D02*
X194654D01*
X198104D02*
X198554D01*
X171954Y256160D02*
X175004D01*
X176204D02*
X176754D01*
X177854D02*
X178404D01*
X179554D02*
X180154D01*
X181304D02*
X182754D01*
X184054D02*
X185854D01*
X187904D02*
X192254D01*
X193354D02*
X194654D01*
X198104D02*
X198554D01*
X171954Y256110D02*
X175004D01*
X176254D02*
X176754D01*
X177854D02*
X178454D01*
X179554D02*
X180154D01*
X181304D02*
X182754D01*
X184054D02*
X185854D01*
X187904D02*
X192254D01*
X193354D02*
X194654D01*
X198104D02*
X198554D01*
X171954Y256060D02*
X175054D01*
X176254D02*
X176754D01*
X177854D02*
X178454D01*
X179604D02*
X180154D01*
X181304D02*
X182754D01*
X184054D02*
X185854D01*
X187904D02*
X192254D01*
X193354D02*
X194654D01*
X198104D02*
X198554D01*
X171954Y256010D02*
X175054D01*
X176254D02*
X176704D01*
X177804D02*
X178454D01*
X179604D02*
X180154D01*
X181254D02*
X182754D01*
X184054D02*
X185854D01*
X187904D02*
X192254D01*
X193354D02*
X194654D01*
X198104D02*
X198554D01*
X171954Y255960D02*
X175054D01*
X176254D02*
X176704D01*
X177804D02*
X178504D01*
X179604D02*
X180104D01*
X181254D02*
X182754D01*
X184054D02*
X185854D01*
X187904D02*
X192254D01*
X193354D02*
X194654D01*
X198104D02*
X198554D01*
X171954Y255910D02*
X175054D01*
X176254D02*
X176704D01*
X177804D02*
X178504D01*
X179654D02*
X180104D01*
X181254D02*
X182754D01*
X184054D02*
X185854D01*
X187904D02*
X192254D01*
X193354D02*
X194654D01*
X198104D02*
X198554D01*
X171954Y255860D02*
X175104D01*
X176304D02*
X176704D01*
X177804D02*
X178504D01*
X179654D02*
X180104D01*
X181254D02*
X182754D01*
X184054D02*
X185854D01*
X187904D02*
X192254D01*
X193354D02*
X194654D01*
X198104D02*
X198554D01*
X171954Y255810D02*
X175104D01*
X176304D02*
X176654D01*
X177754D02*
X178504D01*
X179654D02*
X180104D01*
X181204D02*
X182754D01*
X184054D02*
X185854D01*
X187904D02*
X192254D01*
X193354D02*
X194654D01*
X198104D02*
X198554D01*
X171954Y255760D02*
X175104D01*
X176304D02*
X176654D01*
X177754D02*
X178554D01*
X179704D02*
X180054D01*
X181204D02*
X182754D01*
X184054D02*
X185854D01*
X187904D02*
X192254D01*
X193354D02*
X194654D01*
X198104D02*
X198554D01*
X171954Y255710D02*
X175104D01*
X176304D02*
X176654D01*
X177754D02*
X178554D01*
X179704D02*
X180054D01*
X181204D02*
X182754D01*
X184054D02*
X185854D01*
X187904D02*
X192254D01*
X193354D02*
X194654D01*
X198104D02*
X198554D01*
X171954Y255660D02*
X175154D01*
X176354D02*
X176604D01*
X177704D02*
X178554D01*
X179704D02*
X180054D01*
X181204D02*
X182754D01*
X184054D02*
X185854D01*
X187904D02*
X192254D01*
X193354D02*
X194654D01*
X198104D02*
X198554D01*
X171954Y255610D02*
X175154D01*
X176354D02*
X176604D01*
X177704D02*
X178604D01*
X179704D02*
X180054D01*
X181154D02*
X182754D01*
X184054D02*
X185854D01*
X187904D02*
X192254D01*
X193354D02*
X194654D01*
X198104D02*
X198554D01*
X171954Y255560D02*
X175154D01*
X176354D02*
X176604D01*
X177704D02*
X178604D01*
X179754D02*
X180004D01*
X181154D02*
X182754D01*
X184054D02*
X185854D01*
X187904D02*
X192254D01*
X193354D02*
X194654D01*
X198104D02*
X198554D01*
X171954Y255510D02*
X175154D01*
X176354D02*
X176554D01*
X177704D02*
X178604D01*
X179754D02*
X180004D01*
X181154D02*
X182754D01*
X184054D02*
X185854D01*
X187904D02*
X192254D01*
X193354D02*
X194654D01*
X198104D02*
X198554D01*
X171954Y255460D02*
X175204D01*
X176354D02*
X176554D01*
X177654D02*
X178604D01*
X179754D02*
X180004D01*
X181154D02*
X182754D01*
X184054D02*
X185854D01*
X187904D02*
X192254D01*
X193354D02*
X194654D01*
X198104D02*
X198554D01*
X171954Y255410D02*
X175204D01*
X176404D02*
X176554D01*
X177654D02*
X178654D01*
X179754D02*
X180004D01*
X181104D02*
X182754D01*
X184054D02*
X185854D01*
X187904D02*
X192254D01*
X193354D02*
X194654D01*
X198104D02*
X198554D01*
X171954Y255360D02*
X175204D01*
X176404D02*
X176554D01*
X177654D02*
X178654D01*
X179804D02*
X180004D01*
X181104D02*
X182754D01*
X184054D02*
X185854D01*
X187904D02*
X192254D01*
X193354D02*
X194654D01*
X198104D02*
X198554D01*
X171954Y255310D02*
X175254D01*
X176404D02*
X176504D01*
X177604D02*
X178654D01*
X179804D02*
X179954D01*
X181104D02*
X182754D01*
X184054D02*
X185854D01*
X187904D02*
X192254D01*
X193354D02*
X194654D01*
X198104D02*
X198554D01*
X171954Y255260D02*
X175254D01*
X176404D02*
X176504D01*
X177604D02*
X178704D01*
X179804D02*
X179954D01*
X181054D02*
X182754D01*
X184054D02*
X185854D01*
X187904D02*
X189254D01*
X193354D02*
X194654D01*
X198104D02*
X198554D01*
X171954Y255210D02*
X175254D01*
X176454D02*
X176504D01*
X177604D02*
X178704D01*
X179854D02*
X179954D01*
X181054D02*
X182754D01*
X184054D02*
X185854D01*
X187904D02*
X189254D01*
X193354D02*
X194654D01*
X198104D02*
X198554D01*
X171954Y255160D02*
X175254D01*
X177604D02*
X178704D01*
X179854D02*
X179954D01*
X181054D02*
X182754D01*
X184054D02*
X185854D01*
X187904D02*
X189254D01*
X193354D02*
X194654D01*
X198104D02*
X198554D01*
X171954Y255110D02*
X175304D01*
X177554D02*
X178704D01*
X179854D02*
X179904D01*
X181054D02*
X182754D01*
X184054D02*
X185854D01*
X187904D02*
X189254D01*
X193354D02*
X194654D01*
X198104D02*
X198554D01*
X171954Y255060D02*
X175304D01*
X177554D02*
X178754D01*
X179854D02*
X179904D01*
X181004D02*
X182754D01*
X184054D02*
X185854D01*
X187904D02*
X189254D01*
X193354D02*
X194654D01*
X198104D02*
X198554D01*
X171954Y255010D02*
X175304D01*
X177554D02*
X178754D01*
X181004D02*
X182754D01*
X184054D02*
X185854D01*
X187904D02*
X189254D01*
X193354D02*
X194654D01*
X198104D02*
X198554D01*
X171954Y254960D02*
X175304D01*
X177504D02*
X178754D01*
X181004D02*
X182754D01*
X184054D02*
X185854D01*
X187904D02*
X189254D01*
X193354D02*
X194654D01*
X198104D02*
X198554D01*
X171954Y254910D02*
X175354D01*
X177504D02*
X178804D01*
X181004D02*
X182754D01*
X184054D02*
X185854D01*
X187904D02*
X189254D01*
X193354D02*
X194654D01*
X198104D02*
X198554D01*
X171954Y254860D02*
X175354D01*
X177504D02*
X178804D01*
X180954D02*
X182754D01*
X184054D02*
X185854D01*
X187904D02*
X189254D01*
X193354D02*
X194654D01*
X198104D02*
X198554D01*
X171954Y254810D02*
X175354D01*
X177454D02*
X178804D01*
X180954D02*
X182754D01*
X184054D02*
X185854D01*
X187904D02*
X189254D01*
X193354D02*
X194654D01*
X198104D02*
X198554D01*
X171954Y254760D02*
X175404D01*
X177454D02*
X178854D01*
X180954D02*
X182754D01*
X184054D02*
X185854D01*
X187904D02*
X189254D01*
X193354D02*
X194654D01*
X198104D02*
X198554D01*
X171954Y254710D02*
X175404D01*
X177454D02*
X178854D01*
X180954D02*
X182754D01*
X184054D02*
X185854D01*
X187904D02*
X189254D01*
X193354D02*
X194654D01*
X198104D02*
X198554D01*
X171954Y254660D02*
X175404D01*
X177454D02*
X178854D01*
X180904D02*
X182754D01*
X184054D02*
X185854D01*
X187904D02*
X189254D01*
X193354D02*
X194654D01*
X198104D02*
X198554D01*
X171954Y254610D02*
X175404D01*
X177404D02*
X178854D01*
X180904D02*
X182754D01*
X184054D02*
X185854D01*
X187904D02*
X189254D01*
X193354D02*
X194654D01*
X198104D02*
X198554D01*
X171954Y254560D02*
X175454D01*
X177404D02*
X178904D01*
X180904D02*
X182754D01*
X184054D02*
X185854D01*
X187904D02*
X189254D01*
X193354D02*
X194654D01*
X198104D02*
X198554D01*
X171954Y254510D02*
X175454D01*
X177404D02*
X178904D01*
X180904D02*
X182754D01*
X184054D02*
X185854D01*
X187904D02*
X189254D01*
X193354D02*
X194654D01*
X198104D02*
X198554D01*
X171954Y254460D02*
X175454D01*
X177354D02*
X178904D01*
X180854D02*
X182754D01*
X184054D02*
X185854D01*
X187904D02*
X189254D01*
X193354D02*
X194654D01*
X198104D02*
X198554D01*
X171954Y254410D02*
X175454D01*
X177354D02*
X178904D01*
X180854D02*
X182754D01*
X184054D02*
X185854D01*
X187904D02*
X189254D01*
X193354D02*
X194654D01*
X198104D02*
X198554D01*
X171954Y254360D02*
X175504D01*
X177354D02*
X178954D01*
X180854D02*
X182754D01*
X184054D02*
X185854D01*
X187904D02*
X189254D01*
X193354D02*
X194654D01*
X198104D02*
X198554D01*
X171954Y254310D02*
X175504D01*
X177354D02*
X178954D01*
X180804D02*
X182754D01*
X184054D02*
X185854D01*
X187904D02*
X189254D01*
X193354D02*
X194654D01*
X198104D02*
X198554D01*
X171954Y254260D02*
X175504D01*
X177304D02*
X178954D01*
X180804D02*
X182754D01*
X184054D02*
X185854D01*
X187904D02*
X189254D01*
X193354D02*
X194654D01*
X198104D02*
X198554D01*
X171954Y254210D02*
X175504D01*
X177304D02*
X179004D01*
X180804D02*
X182754D01*
X184054D02*
X185854D01*
X187904D02*
X189254D01*
X193354D02*
X194654D01*
X198104D02*
X198554D01*
X171954Y254160D02*
X175554D01*
X177304D02*
X179004D01*
X180804D02*
X182754D01*
X184054D02*
X185854D01*
X187904D02*
X189254D01*
X193354D02*
X194654D01*
X198104D02*
X198554D01*
X171954Y254110D02*
X175554D01*
X177254D02*
X179004D01*
X180754D02*
X182754D01*
X184054D02*
X185854D01*
X187904D02*
X189254D01*
X193354D02*
X194654D01*
X198104D02*
X198554D01*
X172004Y254060D02*
X175554D01*
X177254D02*
X179004D01*
X180754D02*
X182754D01*
X184054D02*
X185854D01*
X187904D02*
X189254D01*
X193354D02*
X194654D01*
X198104D02*
X198504D01*
X172004Y254010D02*
X175604D01*
X177254D02*
X179054D01*
X180754D02*
X182754D01*
X184054D02*
X185804D01*
X187904D02*
X189254D01*
X193354D02*
X194654D01*
X198104D02*
X198504D01*
X172004Y253960D02*
X175604D01*
X177254D02*
X179054D01*
X180754D02*
X182754D01*
X184054D02*
X185804D01*
X187904D02*
X189254D01*
X193354D02*
X194654D01*
X198104D02*
X198504D01*
X172004Y253910D02*
X175604D01*
X177204D02*
X179054D01*
X180704D02*
X182754D01*
X184054D02*
X185804D01*
X187904D02*
X189254D01*
X193354D02*
X194654D01*
X198104D02*
X198504D01*
X172004Y253860D02*
X175604D01*
X177204D02*
X179104D01*
X180704D02*
X182754D01*
X184054D02*
X185804D01*
X187904D02*
X189254D01*
X193354D02*
X194654D01*
X198054D02*
X198504D01*
X172004Y253810D02*
X175654D01*
X177204D02*
X179104D01*
X180704D02*
X182754D01*
X184054D02*
X185804D01*
X187904D02*
X189254D01*
X193354D02*
X194654D01*
X198054D02*
X198504D01*
X172004Y253760D02*
X175654D01*
X177154D02*
X179104D01*
X180704D02*
X182754D01*
X184054D02*
X185804D01*
X187904D02*
X189254D01*
X193354D02*
X194654D01*
X198054D02*
X198454D01*
X172054Y253710D02*
X175654D01*
X177154D02*
X179154D01*
X180654D02*
X182754D01*
X184054D02*
X185804D01*
X187904D02*
X189254D01*
X193354D02*
X194654D01*
X198054D02*
X198454D01*
X172054Y253660D02*
X175654D01*
X177154D02*
X179154D01*
X180654D02*
X182754D01*
X184054D02*
X185804D01*
X187904D02*
X189254D01*
X193354D02*
X194654D01*
X198054D02*
X198454D01*
X172054Y253610D02*
X175704D01*
X177154D02*
X179154D01*
X180654D02*
X182754D01*
X184054D02*
X185754D01*
X187904D02*
X189254D01*
X193354D02*
X194654D01*
X198004D02*
X198454D01*
X172054Y253560D02*
X175704D01*
X177104D02*
X179154D01*
X180654D02*
X182754D01*
X184054D02*
X185754D01*
X187904D02*
X189254D01*
X193354D02*
X194654D01*
X198004D02*
X198454D01*
X172054Y253510D02*
X175704D01*
X177104D02*
X179204D01*
X180604D02*
X182754D01*
X184054D02*
X185754D01*
X187904D02*
X189254D01*
X193354D02*
X194654D01*
X198004D02*
X198404D01*
X172104Y253460D02*
X175704D01*
X177104D02*
X179204D01*
X180604D02*
X182754D01*
X184054D02*
X185754D01*
X187904D02*
X189254D01*
X193354D02*
X194654D01*
X198004D02*
X198404D01*
X172104Y253410D02*
X175754D01*
X177054D02*
X179204D01*
X180604D02*
X182754D01*
X184054D02*
X185754D01*
X187904D02*
X189254D01*
X193354D02*
X194654D01*
X197954D02*
X198404D01*
X172104Y253360D02*
X175754D01*
X177054D02*
X179254D01*
X180554D02*
X182754D01*
X184054D02*
X185704D01*
X187904D02*
X189254D01*
X193354D02*
X194654D01*
X197954D02*
X198404D01*
X172154Y253310D02*
X175754D01*
X177054D02*
X179254D01*
X180554D02*
X182754D01*
X184054D02*
X185704D01*
X187904D02*
X189254D01*
X193354D02*
X194654D01*
X197954D02*
X198354D01*
X172154Y253260D02*
X175804D01*
X177054D02*
X179254D01*
X180554D02*
X182754D01*
X184054D02*
X185704D01*
X187904D02*
X189254D01*
X193354D02*
X194654D01*
X197904D02*
X198354D01*
X172154Y253210D02*
X175804D01*
X177004D02*
X179254D01*
X180554D02*
X182754D01*
X184054D02*
X185704D01*
X187904D02*
X189254D01*
X193354D02*
X194654D01*
X197904D02*
X198354D01*
X172154Y253160D02*
X175804D01*
X177004D02*
X179304D01*
X180504D02*
X182804D01*
X184054D02*
X185654D01*
X187904D02*
X189254D01*
X193354D02*
X194654D01*
X197904D02*
X198304D01*
X172204Y253110D02*
X175804D01*
X177004D02*
X179304D01*
X180504D02*
X182804D01*
X184054D02*
X185654D01*
X187904D02*
X189254D01*
X193354D02*
X194654D01*
X197854D02*
X198304D01*
X172204Y253060D02*
X175854D01*
X176954D02*
X179304D01*
X180504D02*
X182754D01*
X184054D02*
X185654D01*
X187904D02*
X189254D01*
X193354D02*
X194654D01*
X197854D02*
X198304D01*
X172254Y253010D02*
X175854D01*
X176954D02*
X179354D01*
X180504D02*
X182754D01*
X184054D02*
X185654D01*
X187904D02*
X189254D01*
X193354D02*
X194654D01*
X197854D02*
X198254D01*
X172254Y252960D02*
X175854D01*
X176954D02*
X179354D01*
X180454D02*
X182754D01*
X184054D02*
X185604D01*
X187904D02*
X189254D01*
X193354D02*
X194654D01*
X197804D02*
X198254D01*
X172254Y252910D02*
X175904D01*
X176004D02*
X176054D01*
X176854D02*
X179354D01*
X179454D02*
X179504D01*
X179554D02*
X179654D01*
X180454D02*
X182804D01*
X184054D02*
X185604D01*
X188004D02*
X189254D01*
X193454D02*
X193554D01*
X193654D02*
X194454D01*
X194604D02*
X194654D01*
X197804D02*
X198254D01*
X172304Y252860D02*
X185604D01*
X197754D02*
X198204D01*
X172304Y252810D02*
X185554D01*
X197754D02*
X198204D01*
X172354Y252760D02*
X185554D01*
X197704D02*
X198154D01*
X172354Y252710D02*
X185554D01*
X197704D02*
X198154D01*
X172354Y252660D02*
X185504D01*
X197654D02*
X198104D01*
X172404Y252610D02*
X185504D01*
X197654D02*
X198104D01*
X172404Y252560D02*
X185454D01*
X197604D02*
X198054D01*
X172454Y252510D02*
X185454D01*
X197604D02*
X198054D01*
X172454Y252460D02*
X185454D01*
X197554D02*
X198004D01*
X172504Y252410D02*
X185404D01*
X197554D02*
X198004D01*
X172554Y252360D02*
X185404D01*
X197504D02*
X197954D01*
X172554Y252310D02*
X185354D01*
X197454D02*
X197954D01*
X172604Y252260D02*
X185354D01*
X197454D02*
X197904D01*
X172604Y252210D02*
X185304D01*
X197404D02*
X197904D01*
X172654Y252160D02*
X185304D01*
X197354D02*
X197854D01*
X172704Y252110D02*
X185254D01*
X197304D02*
X197804D01*
X172704Y252060D02*
X185254D01*
X197304D02*
X197804D01*
X172754Y252010D02*
X185204D01*
X197254D02*
X197754D01*
X172804Y251960D02*
X185204D01*
X197204D02*
X197704D01*
X172854Y251910D02*
X185154D01*
X197154D02*
X197654D01*
X172854Y251860D02*
X185104D01*
X197104D02*
X197654D01*
X172904Y251810D02*
X185104D01*
X197054D02*
X197604D01*
X172954Y251760D02*
X185054D01*
X197054D02*
X197554D01*
X173004Y251710D02*
X185004D01*
X197004D02*
X197504D01*
X173004Y251660D02*
X185004D01*
X196954D02*
X197454D01*
X173054Y251610D02*
X184954D01*
X196904D02*
X197454D01*
X173104Y251560D02*
X184904D01*
X196804D02*
X197404D01*
X173154Y251510D02*
X184904D01*
X196754D02*
X197354D01*
X173204Y251460D02*
X184854D01*
X196704D02*
X197304D01*
X173254Y251410D02*
X184804D01*
X196654D02*
X197254D01*
X173304Y251360D02*
X184754D01*
X196604D02*
X197204D01*
X173354Y251310D02*
X184704D01*
X196504D02*
X197154D01*
X173404Y251260D02*
X184704D01*
X196454D02*
X197104D01*
X173454Y251210D02*
X184654D01*
X196404D02*
X197054D01*
X173554Y251160D02*
X184604D01*
X196304D02*
X196954D01*
X173604Y251110D02*
X184554D01*
X196254D02*
X196904D01*
X173654Y251060D02*
X184504D01*
X196154D02*
X196854D01*
X173704Y251010D02*
X184454D01*
X196054D02*
X196804D01*
X173754Y250960D02*
X184404D01*
X195954D02*
X196704D01*
X173854Y250910D02*
X184354D01*
X195854D02*
X196654D01*
X173904Y250860D02*
X184304D01*
X195754D02*
X196604D01*
X174004Y250810D02*
X184254D01*
X195654D02*
X196504D01*
X174054Y250760D02*
X184204D01*
X195504D02*
X196454D01*
X174154Y250710D02*
X184154D01*
X195354D02*
X196354D01*
X174254Y250660D02*
X184104D01*
X195204D02*
X196254D01*
X174354Y250610D02*
X184004D01*
X194954D02*
X196154D01*
X174454Y250560D02*
X183954D01*
X194604D02*
X196054D01*
X174554Y250510D02*
X195954D01*
X174654Y250460D02*
X195854D01*
X174754Y250410D02*
X195754D01*
X174904Y250360D02*
X195604D01*
X175054Y250310D02*
X195454D01*
X175204Y250260D02*
X195304D01*
X175404Y250210D02*
X195104D01*
X175654Y250160D02*
X194904D01*
X176004Y250110D02*
X194504D01*
M02*
